<?xml version="1.0" encoding="UTF-8" standalone="no"?>
<!-- Created with Inkscape (http://www.inkscape.org/) -->

<svg
   xmlns:dc="http://purl.org/dc/elements/1.1/"
   xmlns:cc="http://creativecommons.org/ns#"
   xmlns:rdf="http://www.w3.org/1999/02/22-rdf-syntax-ns#"
   xmlns:svg="http://www.w3.org/2000/svg"
   xmlns="http://www.w3.org/2000/svg"
   xmlns:sodipodi="http://sodipodi.sourceforge.net/DTD/sodipodi-0.dtd"
   xmlns:inkscape="http://www.inkscape.org/namespaces/inkscape"
   width="207.34544mm"
   height="238.12364mm"
   viewBox="0 0 207.34544 238.12364"
   version="1.1"
   id="svg8"
   inkscape:version="0.92.1 r15371"
   sodipodi:docname="818_.svg">
  <defs
     id="defs2" />
  <sodipodi:namedview
     id="base"
     pagecolor="#ffffff"
     bordercolor="#666666"
     borderopacity="1.0"
     inkscape:pageopacity="0.0"
     inkscape:pageshadow="2"
     inkscape:zoom="0.8359833"
     inkscape:cx="321.75896"
     inkscape:cy="457.80395"
     inkscape:document-units="mm"
     inkscape:current-layer="layer1"
     showgrid="false"
     fit-margin-top="0"
     fit-margin-left="0"
     fit-margin-right="0"
     fit-margin-bottom="0"
     inkscape:window-width="1920"
     inkscape:window-height="986"
     inkscape:window-x="-11"
     inkscape:window-y="-11"
     inkscape:window-maximized="1" />
  <metadata
     id="metadata5">
    <rdf:RDF>
      <cc:Work
         rdf:about="">
        <dc:format>image/svg+xml</dc:format>
        <dc:type
           rdf:resource="http://purl.org/dc/dcmitype/StillImage" />
        <dc:title></dc:title>
      </cc:Work>
    </rdf:RDF>
  </metadata>
  <g
     inkscape:label="Layer 1"
     inkscape:groupmode="layer"
     id="layer1"
     transform="translate(-2.8266731,-24.095848)">
    <path
       style="fill:#000000;stroke-width:0.35277778"
       d="M 104.42222,259.98836 C 92.964438,255.29921 87.619971,252.61466 78.896461,247.16663 53.991369,231.61285 34.765241,208.18182 20.392151,175.867 17.880077,170.21914 15.036544,162.8341 14.126412,159.59402 13.771998,158.3323 12.922096,155.39499 12.23774,153.06666 5.9884812,131.80524 2.8157996,107.43139 2.8267011,80.767163 2.8308992,70.498437 3.268962,62.402864 4.245814,54.541378 c 0.4278189,-3.44299 0.9570081,-6.34973 1.239104,-6.806171 0.1106414,-0.179021 2.8081891,-0.325493 5.994551,-0.325493 8.811746,0 15.509618,-0.993721 36.498309,-5.415021 3.201458,-0.674392 7.725833,-1.708774 10.054167,-2.298626 11.115766,-2.816032 32.172067,-9.567196 41.488162,-13.302117 l 5.732203,-2.298102 6.19954,1.993873 c 3.40975,1.096631 9.13641,3.103597 12.72593,4.459925 16.49453,6.232595 21.49106,7.409057 43.03889,10.133749 3.00743,0.380285 9.59555,1.245262 14.64028,1.922171 5.04472,0.67691 12.58407,1.644544 16.7541,2.150299 4.17004,0.505756 7.69581,1.03348 7.83505,1.172721 0.6838,0.683801 2.5848,15.740889 3.31392,26.248336 0.62811,9.051766 0.518,31.886718 -0.19272,39.967518 -1.46298,16.63373 -6.16305,40.05386 -10.20105,50.83116 -1.78124,4.75404 -6.57118,16.33103 -8.67177,20.95911 -11.73729,25.85989 -29.71957,48.42161 -49.93615,62.65309 -7.0853,4.98771 -18.03499,11.44223 -23.9539,14.12013 -4.73596,2.1427 -5.49634,2.09851 -12.38221,-0.71957 z m 11.57637,-14.69919 c 7.19612,-3.81224 17.56499,-10.62904 17.16125,-11.2823 -0.32586,-0.52725 -5.16287,-0.37124 -6.15984,0.19867 -1.5525,0.88749 -3.05081,0.67045 -3.95819,-0.57337 -0.44237,-0.6064 -1.47402,-1.39238 -2.29256,-1.74662 -1.02806,-0.44491 -1.55797,-0.92187 -1.71374,-1.5425 -0.30672,-1.22207 0.0351,-1.95834 0.90919,-1.95834 0.40038,0 1.31155,-0.24384 2.02481,-0.54186 l 1.29685,-0.54185 -1.37011,1.18437 c -1.01579,0.87808 -1.30636,1.35051 -1.12358,1.82682 0.21581,0.56242 0.53117,0.61588 2.53137,0.4291 2.58218,-0.24113 2.90441,0.10548 1.31471,1.41419 -0.82382,0.67821 -0.89033,0.85457 -0.44097,1.16935 0.29104,0.20388 1.00542,0.27353 1.5875,0.15477 0.58208,-0.11875 2.09021,-0.3443 3.35139,-0.50122 1.26118,-0.15691 2.55643,-0.393 2.87834,-0.52464 0.32191,-0.13164 1.14312,-0.0853 1.82491,0.10292 1.41796,0.39152 1.67933,0.25792 4.9199,-2.51485 2.19018,-1.874 2.32155,-2.43738 0.92506,-3.96711 -0.36277,-0.39739 -0.76487,-1.24897 -0.89356,-1.89241 -0.21565,-1.07826 -0.17462,-1.15107 0.52374,-0.92941 1.04375,0.33127 0.99133,-0.12595 -0.50845,-4.43473 -1.40716,-4.04264 -2.46562,-6.30844 -2.94698,-6.30844 -0.17503,0 -0.51079,0.59531 -0.74612,1.32292 -0.23533,0.7276 -0.74416,1.95162 -1.13072,2.72004 l -0.70285,1.39713 0.77565,0.54315 c 1.49331,1.0457 3.19497,2.55906 3.19497,2.84143 0,0.15669 -0.99424,-0.3818 -2.20942,-1.19667 -3.13854,-2.10462 -5.62795,-2.81245 -9.19874,-2.61555 -3.11564,0.17181 -5.46977,1.10496 -7.39498,2.93128 -1.29622,1.22965 -0.82723,1.81077 1.71801,2.12878 1.56294,0.19527 2.08597,0.11821 2.84173,-0.41868 3.00067,-2.13166 3.75586,-2.30436 5.9916,-1.37021 0.86644,0.36202 1.21402,0.71212 1.13166,1.13982 -0.094,0.48794 -0.75402,0.70805 -3.14968,1.05031 -4.01187,0.57316 -6.71835,1.61737 -8.01255,3.09139 -0.57136,0.65074 -1.12734,1.39698 -1.23553,1.65832 -0.15236,0.36803 -0.28481,0.33597 -0.58749,-0.14221 -0.28425,-0.44905 -0.85612,-0.61736 -2.09768,-0.61736 -2.40628,0 -7.55743,-1.57575 -9.99831,-3.05851 -3.19604,-1.94149 -6.144207,-6.20925 -7.817904,-11.31718 -0.333777,-1.01865 -0.75286,-1.85209 -0.931295,-1.85209 -0.178435,0 -0.324425,0.70167 -0.324425,1.55926 0,0.8576 -0.413487,3.27507 -0.918863,5.37217 -1.07758,4.47155 -1.020071,5.3035 0.743772,10.75961 1.730975,5.35444 2.182831,8.23586 1.652091,10.53514 -0.231518,1.003 -0.329823,1.97106 -0.218451,2.15127 0.499092,0.80754 12.532805,6.26226 13.881725,6.29239 0.46903,0.0105 2.67527,-0.94644 4.90276,-2.12649 z m 11.35419,-15.06432 c 0,-0.58512 3.69879,-2.19292 5.04488,-2.19292 1.9995,0 4.86219,0.72419 5.07716,1.28438 0.34365,0.89556 -0.14509,0.92158 -2.42583,0.12915 -2.5833,-0.89754 -4.45105,-0.78908 -6.42032,0.37282 -0.70174,0.41403 -1.27589,0.59699 -1.27589,0.40657 z m -2.11667,-3.94775 c 0,-0.30651 1.78441,-1.42017 2.27554,-1.42017 0.58496,0 0.062,1.00516 -0.70464,1.35449 -1.09662,0.49965 -1.5709,0.51948 -1.5709,0.0657 z m 6.40551,-0.36007 c -0.64857,-0.15334 -1.36205,-0.46164 -1.58552,-0.68511 -0.30656,-0.30656 0.32841,-0.38081 2.58642,-0.30245 2.52079,0.0875 3.01134,0.20121 3.11069,0.72121 0.0984,0.51513 -0.13459,0.61139 -1.4072,0.58125 -0.83885,-0.0199 -2.05582,-0.16156 -2.70439,-0.3149 z m -38.16461,12.61004 c -0.0596,-2.88733 -0.921643,-7.99439 -1.94728,-11.53633 l -1.271962,-4.39259 1.056432,-3.36852 c 0.621785,-1.98262 1.221345,-4.96511 1.457261,-7.24909 0.350224,-3.3906 0.552278,-4.13652 1.600356,-5.90792 1.813309,-3.06476 1.794637,-3.13648 -1.062094,-4.07933 -3.292461,-1.08666 -5.793987,-1.33897 -6.677244,-0.67348 -0.668221,0.50346 -0.666694,0.5293 0.08819,1.48898 0.493184,0.62698 0.768216,1.4731 0.768216,2.36336 0,0.7627 0.167901,1.70045 0.373112,2.08389 0.675672,1.2625 0.498281,3.91045 -0.357907,5.34261 -0.789023,1.3198 -0.790187,1.34549 -0.400551,8.81944 0.307898,5.90598 0.592095,8.34859 1.339977,11.51668 l 0.949202,4.0209 1.586597,1.00619 c 1.709518,1.08414 2.512151,1.26577 2.497691,0.56521 z m -8.699147,-7.05555 c 0.114286,-1.21268 0.361103,-3.19009 0.548484,-4.39426 0.545208,-3.50368 0.596541,-3.45505 -3.646988,-3.45505 -2.011091,0 -3.754205,0.0977 -3.873592,0.21699 -0.235807,0.23573 0.468814,5.14769 0.842229,5.87124 0.283457,0.54924 4.990024,3.90212 5.5294,3.93905 0.229098,0.0157 0.479235,-0.89159 0.600467,-2.17797 z M 74.51241,223.46547 c -0.230847,-1.34621 -0.315679,-2.97292 -0.188514,-3.6149 0.200378,-1.01159 0.160327,-1.109 -0.300358,-0.73047 -0.292361,0.24023 -0.720386,1.06701 -0.951167,1.83728 -0.455626,1.52074 -1.105704,2.21516 -1.105704,1.18112 0,-0.77037 0.97252,-2.67212 2.887112,-5.64569 1.328117,-2.06272 1.386353,-2.2634 0.998178,-3.43959 -0.431715,-1.30811 -1.23789,-1.61964 -2.09115,-0.80809 -0.300317,0.28564 -0.263035,0.0433 0.105833,-0.68804 0.824893,-1.6354 0.729989,-2.2091 -0.876734,-5.29986 -1.148048,-2.20844 -1.486704,-3.28712 -1.642636,-5.23211 -0.108034,-1.34757 -0.411875,-2.96607 -0.675195,-3.59666 -0.407257,-0.97528 -0.658167,-1.14653 -1.6799,-1.14653 -1.730544,0 -2.317175,-0.31708 -2.317175,-1.25246 0,-0.94957 1.200203,-1.92254 2.371552,-1.92254 0.991599,0 1.055748,0.57794 0.09789,0.88195 -0.388056,0.12316 -0.705556,0.47181 -0.705556,0.77478 0,0.45925 0.302461,0.51072 1.819056,0.30953 2.15179,-0.28544 3.825389,-1.07247 3.825389,-1.79893 0,-0.34271 -0.36097,-0.5201 -1.058334,-0.5201 -0.582083,0 -1.058333,-0.15375 -1.058333,-0.34165 0,-0.32628 1.948681,-1.83648 5.21892,-4.0446 0.833117,-0.56253 1.593007,-1.1494 1.688652,-1.30416 0.09564,-0.15475 -0.06661,-1.20952 -0.36057,-2.34393 -0.44178,-1.70489 -0.511253,-4.19998 -0.400625,-14.38842 0.07361,-6.77922 0.253044,-12.64335 0.398741,-13.03141 0.390867,-1.04105 1.262405,-1.95323 1.642032,-1.71861 0.471407,0.29135 2.028017,-1.2624 1.816626,-1.81328 -0.0967,-0.25199 0.306987,-0.98915 0.897086,-1.63814 l 1.072899,-1.17997 0.01034,1.44463 c 0.0074,1.03132 -0.202639,1.6369 -0.734082,2.11667 -0.409433,0.36962 -1.211467,1.26096 -1.7823,1.98077 -0.975833,1.23049 -1.013005,1.39175 -0.62182,2.6974 0.377634,1.26044 0.312427,1.66003 -0.706166,4.32746 -1.067964,2.79672 -1.135585,3.27175 -1.398697,9.82621 -0.209257,5.21284 -0.164197,7.4332 0.185332,9.13218 0.623245,3.02947 0.915074,3.3418 2.442076,2.61362 1.12263,-0.53535 1.244328,-0.53137 1.9001,0.0621 0.474853,0.42973 0.776686,1.30616 0.936597,2.71958 0.140317,1.24025 0.517948,2.44401 0.931728,2.97005 l 0.695777,0.88454 -0.913931,1.38105 c -1.064183,1.60808 -0.940386,2.1846 0.684801,3.18902 0.652459,0.40324 1.697176,1.37821 2.321592,2.1666 1.127284,1.42332 1.148758,1.43205 3.041647,1.23668 2.135738,-0.22042 2.905463,-0.0426 2.905463,0.67135 0,0.68189 1.494402,0.97745 3.759902,0.74363 2.24795,-0.23201 2.942886,-0.68932 2.942886,-1.9366 0,-1.42621 -0.946985,-2.18944 -2.716547,-2.18944 -1.722233,0 -3.280678,-1.15557 -3.280678,-2.43259 0,-0.90585 0.601105,-1.26826 1.233304,-0.74359 0.752468,0.6245 2.206283,-0.59686 2.666249,-2.23992 0.314889,-1.12482 0.253068,-1.77865 -0.358574,-3.79236 -0.406485,-1.33826 -0.893244,-2.43321 -1.081687,-2.43321 -0.577508,0 -0.36612,2.20714 0.365876,3.82016 0.406647,0.89609 0.524602,1.47097 0.285461,1.39126 -0.224148,-0.0747 -0.620649,-0.75139 -0.881109,-1.50371 -0.680025,-1.9642 -1.388014,-2.58731 -3.240288,-2.85181 -2.090971,-0.29858 -3.562756,-1.19824 -5.31628,-3.24968 -0.770142,-0.90099 -1.479769,-1.55866 -1.576945,-1.46148 -0.09718,0.0972 0.08774,0.91201 0.410919,1.81075 0.497258,1.38281 0.516287,1.76733 0.123772,2.50075 -0.400181,0.74774 -0.367097,1.08538 0.241067,2.46024 0.531463,1.20145 1.234733,1.95335 2.858237,3.05585 2.059824,1.3988 2.584313,2.18634 1.785038,2.68032 -0.490788,0.30332 -1.519883,-0.41087 -3.906043,-2.71079 -1.897497,-1.82891 -2.013113,-2.04526 -2.734028,-5.11596 -0.860803,-3.66655 -0.919297,-5.13323 -0.339556,-8.51402 0.379356,-2.21222 0.336021,-2.73353 -0.529167,-6.36584 -1.098789,-4.61304 -1.166322,-7.40627 -0.2274,-9.40576 l 0.662633,-1.41111 -0.247823,1.5875 c -0.48442,3.10309 -0.239744,5.09039 0.994904,8.08078 1.176189,2.84882 1.184748,2.90897 0.763344,5.36639 -0.385614,2.24873 -0.361347,2.63184 0.254974,4.02513 0.374632,0.84692 1.404041,2.26274 2.287573,3.14628 2.2035,2.20349 3.451652,2.11225 2.15416,-0.15747 -0.27729,-0.48507 -0.510191,-1.43757 -0.517557,-2.11667 -0.0074,-0.67909 -0.391202,-2.66347 -0.85297,-4.40972 -1.682101,-6.36109 -1.533134,-17.91871 0.301977,-23.42904 2.152375,-6.463 6.07464,-9.88795 12.371304,-10.80273 1.93889,-0.28168 2.98475,-0.71582 2.98475,-1.23897 0,-0.53673 -2.62172,-0.0319 -6.526393,1.25676 -5.689487,1.87767 -6.748762,2.43474 -7.996982,4.2056 -0.881422,1.25048 -1.283384,1.5518 -1.872784,1.40387 -0.500511,-0.12562 -1.357108,0.22893 -2.571761,1.06446 -1.643785,1.13073 -1.794474,1.17572 -1.546196,0.46172 0.17842,-0.51311 1.162113,-1.225 2.799319,-2.02583 1.388326,-0.6791 3.124296,-1.82257 3.857707,-2.54105 2.51394,-2.46276 10.1921,-5.22007 14.53611,-5.22007 2.17247,0 2.44711,0.0868 3.39031,1.07127 0.60874,0.63539 1.77376,1.28855 2.86324,1.60527 1.0103,0.2937 2.2491,0.85824 2.75289,1.25452 1.0734,0.84434 5.27513,6.27317 5.03842,6.50987 -0.0889,0.0889 -0.57554,-0.38109 -1.08147,-1.04439 -1.3126,-1.72091 -4.12605,-3.68453 -6.44885,-4.50094 -2.17788,-0.76546 -3.34735,-0.67184 -2.61598,0.20941 0.69586,0.83846 0.0972,2.59214 -1.09544,3.20887 -0.97681,0.50513 -1.14056,0.48741 -2.50235,-0.27071 -1.85301,-1.03161 -2.10948,-1.69317 -0.65641,-1.69317 0.59825,0 1.08773,-0.15875 1.08773,-0.35277 0,-0.19403 -0.55563,-0.35278 -1.23472,-0.35278 -0.6791,0 -1.23473,0.15875 -1.23473,0.35278 0,0.19402 -0.3093,0.35277 -0.68734,0.35277 -0.37804,0 -1.99349,0.41261 -3.58988,0.91692 -3.375409,1.06628 -4.730228,2.19582 -5.077865,4.23348 -0.129117,0.75679 -0.702254,3.32021 -1.273641,5.69647 -0.83953,3.49141 -0.960469,4.467 -0.630248,5.08402 0.261641,0.48888 0.32821,1.54852 0.18506,2.94574 -0.210555,2.05514 -0.161699,2.26006 0.839061,3.51935 1.018826,1.28202 1.062634,1.48005 1.062634,4.80319 0,4.77308 0.762331,6.75176 3.744633,9.71941 l 2.238276,2.22729 2.12201,-0.0891 c 1.73677,-0.0729 2.22211,-0.23199 2.67343,-0.87633 0.78739,-1.12416 0.37066,-1.49158 -1.6918,-1.49158 -1.70748,0 -1.90232,-0.0979 -3.50696,-1.76271 -1.713138,-1.77736 -2.113484,-2.97339 -1.275701,-3.81118 0.232834,-0.23283 0.709691,-0.42333 1.059681,-0.42333 0.49595,0 0.61659,0.24184 0.5468,1.09619 -0.0687,0.84152 0.13518,1.26682 0.87771,1.83061 0.9347,0.7097 1.00989,0.71408 2.23471,0.13 0.69711,-0.33243 2.24623,-0.6945 3.44248,-0.80461 1.42789,-0.13142 2.89065,-0.56978 4.25838,-1.27613 l 2.08337,-1.07596 1.68327,0.6053 c 1.81721,0.65346 2.43354,0.5136 3.64737,-0.82767 0.77418,-0.85546 0.45923,-1.44779 -0.43027,-0.80922 -1.66164,1.19289 -2.17318,1.28016 -3.16828,0.54051 -0.91092,-0.67709 -1.67345,-2.95762 -0.81061,-2.42435 0.20891,0.12911 0.37983,0.54786 0.37983,0.93056 0,1.11477 0.98425,1.20941 1.93285,0.18585 0.9692,-1.04579 0.88231,-1.02968 2.96468,-0.5496 1.975,0.45533 2.86359,-0.20621 2.86359,-2.13188 0,-1.02638 -0.39207,-1.80405 -1.88441,-3.73768 -2.14244,-2.77598 -3.76305,-5.44274 -3.75368,-6.1768 0.004,-0.274 0.63644,-1.02135 1.40654,-1.66078 1.02143,-0.84813 1.88133,-1.21959 3.17894,-1.37328 1.87792,-0.22241 2.52336,-0.6805 1.71516,-1.2173 -0.77797,-0.51671 -2.46059,-0.0279 -4.44949,1.29247 -1.92023,1.27484 -2.71085,1.4903 -3.10837,0.8471 -0.3051,-0.49367 1.19924,-2.09055 1.9694,-2.09055 0.32756,0 1.19517,-0.47652 1.92805,-1.05893 1.64326,-1.3059 3.90265,-2.05794 4.47207,-1.48853 0.21628,0.21628 0.47043,1.59616 0.56478,3.0664 0.13964,2.17586 0.0612,2.7951 -0.42168,3.32868 -0.39603,0.43759 -0.51862,0.95288 -0.36876,1.54996 0.37767,1.50476 -1.28283,1.94899 -2.69684,0.72149 -0.70811,-0.6147 -1.72671,-0.26022 -1.72671,0.60092 0,0.35601 0.8118,1.56933 1.80401,2.69629 0.99221,1.12694 2.06129,2.58129 2.37574,3.23188 0.55362,1.14546 0.5412,1.23754 -0.39291,2.9106 -0.53054,0.95024 -0.96462,1.88639 -0.96462,2.08031 0,0.71766 0.75686,0.3201 1.33932,-0.70351 0.66485,-1.16838 1.65234,-1.36406 2.73839,-0.54261 0.37663,0.28487 1.13833,0.52299 1.69267,0.52916 0.83414,0.009 0.95912,-0.0952 0.72501,-0.60614 -0.46844,-1.02238 -0.60825,-5.02708 -0.17549,-5.02708 0.21058,0 0.38288,0.17039 0.38288,0.37864 0,0.20826 0.27781,0.32578 0.61736,0.26117 0.42626,-0.0811 0.67196,-0.55322 0.79375,-1.52517 0.18748,-1.49627 0.87032,-1.86348 1.5276,-0.82148 0.26444,0.41922 0.23456,0.9959 -0.10486,2.02439 -0.41132,1.2463 -0.39931,1.62994 0.09,2.87565 0.62092,1.58069 0.52457,2.09777 -0.69303,3.71926 -0.45085,0.6004 -0.81972,1.17976 -0.81972,1.28747 0,0.10771 0.54059,0.99915 1.20131,1.98098 0.66073,0.98183 1.30958,2.42591 1.44188,3.20905 0.14638,0.86638 0.56339,1.67783 1.06504,2.07243 0.50997,0.40114 0.86829,1.10816 0.93936,1.85348 0.11307,1.18565 0.14317,1.20597 1.8788,1.26772 2.2721,0.0808 8.31936,1.4036 8.80149,1.9252 0.27287,0.29522 0.13793,0.33817 -0.51122,0.16272 -3.22139,-0.87065 -6.02282,-1.301 -7.33436,-1.1267 -2.4442,0.32483 -2.89619,0.71493 -2.89619,2.49961 0,0.85717 -0.18419,1.96274 -0.40931,2.45683 -0.31427,0.68973 -0.30724,1.20762 0.0302,2.2302 0.36416,1.10342 0.34626,1.69344 -0.1044,3.43979 -0.81505,3.15847 -0.26417,5.10249 2.67689,9.44665 1.78988,2.64379 2.23115,3.73919 3.47201,8.61882 1.06061,4.17081 2.47006,7.2996 3.4593,7.67921 0.4069,0.15615 1.87168,-1.11837 5.15857,-4.4885 12.70967,-13.03156 23.19251,-29.13483 30.49255,-46.84131 1.23991,-3.00743 2.88092,-6.81743 3.6467,-8.46667 5.10698,-10.99873 9.73222,-31.69379 11.74775,-52.56389 1.49179,-15.446985 0.59999,-52.04915 -1.31043,-53.783698 -0.26517,-0.24076 -3.51509,-0.775204 -7.35431,-1.209403 -12.06542,-1.364555 -28.16577,-3.531721 -35.80694,-4.819744 -11.61519,-1.957898 -15.94943,-3.199509 -32.98472,-9.448999 -3.97757,-1.459192 -8.4496,-3.010295 -9.93783,-3.446895 l -2.70588,-0.793818 -4.18209,1.785239 C 93.918494,43.777875 71.930084,50.71184 60.202343,53.580767 43.752908,57.604748 33.851204,59.466607 21.169854,60.92021 l -3.700979,0.424226 -0.313615,1.763889 c -0.507405,2.853834 -0.465065,32.760164 0.05469,38.629165 1.747345,19.73081 4.199146,33.74931 8.391194,47.97778 0.714566,2.42535 1.577721,5.36997 1.918127,6.54361 1.650707,5.69129 4.860523,13.42178 9.054395,21.80652 9.514759,19.02271 19.415351,32.40057 32.871812,44.417 5.403254,4.82503 5.736855,4.88975 5.066933,0.98307 z M 69.85,218.48941 c 0,-0.20366 0.269826,-0.87834 0.599617,-1.4993 0.696175,-1.31082 1.063646,-0.60343 0.481682,0.92725 C 70.58116,218.8383 69.85,219.22511 69.85,218.48941 Z M 92.23048,190.5493 c -0.548904,-0.43657 -1.79422,-1.19063 -2.767376,-1.6757 -0.973151,-0.48507 -1.837118,-1.10568 -1.919926,-1.37913 -0.110955,-0.3664 0.02448,-0.42354 0.514936,-0.21721 0.366025,0.15399 1.324155,0.38981 2.12918,0.52405 0.805028,0.13424 1.950099,0.65336 2.544607,1.1536 0.594505,0.50025 1.274096,0.97393 1.510199,1.05263 0.566022,0.18867 0.118664,1.33551 -0.520954,1.33551 -0.270965,0 -0.941765,-0.35719 -1.490666,-0.79375 z m 15.01397,-20.48397 c 0,-0.51497 2.27428,-1.73041 2.60988,-1.3948 0.4566,0.45659 0.17166,1.05835 -0.68621,1.44922 -1.18403,0.53949 -1.92367,0.51856 -1.92367,-0.0544 z m -2.60984,-1.47103 c -0.71917,-1.09758 -0.46085,-1.67319 1.57717,-3.51442 1.2929,-1.16806 1.62972,-1.30618 2.74426,-1.12531 1.30366,0.21155 3.06774,1.28893 3.02941,1.85016 -0.0228,0.33347 -4.76776,3.05033 -6.02346,3.44887 -0.55594,0.17645 -0.88778,0.0116 -1.32738,-0.6593 z m -2.68183,-3.16347 c 0,-0.62691 0.43264,-1.16266 1.5718,-1.94643 0.86449,-0.59478 1.7773,-1.37075 2.02847,-1.72437 0.25117,-0.35363 1.52418,-1.15079 2.82891,-1.77147 2.27166,-1.08066 2.41749,-1.10511 3.43958,-0.57656 0.58704,0.30357 1.06735,0.77529 1.06735,1.04828 0,0.56756 -1.21979,1.05654 -1.77682,0.71228 -0.2046,-0.12646 -1.43633,0.41169 -2.73718,1.19589 -1.30084,0.7842 -2.95475,1.6709 -3.67536,1.97046 -0.72061,0.29955 -1.48025,0.8624 -1.68811,1.25078 -0.51811,0.96811 -1.05864,0.88699 -1.05864,-0.15886 z m 25.12571,-1.06703 c -0.602,-0.96559 -1.02852,-1.82166 -0.94782,-1.90235 0.25428,-0.25428 1.24744,0.74339 1.79596,1.80412 0.94371,1.82493 0.27654,1.9022 -0.84814,0.0982 z m -41.874588,-4.79617 c 0.1276,-0.40204 0.595658,-2.56029 1.040126,-4.79612 0.514978,-2.59051 1.033477,-4.2769 1.429354,-4.64889 0.55028,-0.51707 0.599055,-0.51955 0.427051,-0.0217 -0.106796,0.30913 -0.309964,1.49975 -0.451481,2.64583 -0.235518,1.90732 -2.109918,7.55184 -2.507771,7.55184 -0.09311,0 -0.06488,-0.32894 0.06272,-0.73097 z M 49.201839,134.88374 c -6.722544,-0.87906 -12.665198,-4.94669 -15.197631,-10.40246 -1.937086,-4.17319 -1.673645,-9.6341 0.650772,-13.49003 1.297129,-2.15178 4.450715,-5.88304 6.179048,-7.31092 0.63059,-0.52098 1.146528,-1.07671 1.146528,-1.23497 0,-0.15826 -0.837939,-0.76064 -1.862085,-1.33864 -2.240816,-1.264634 -4.298276,-3.460629 -5.317966,-5.676049 -1.073298,-2.331875 -1.045761,-6.771562 0.06196,-9.990215 1.58013,-4.591293 5.094093,-9.584055 11.474323,-16.303124 l 2.984704,-3.143211 4.884392,0.223393 c 8.135648,0.372092 12.550705,1.867637 16.545518,5.604591 4.237563,3.96403 5.246398,8.075796 3.103033,12.647175 -1.171423,2.498418 -3.74615,5.521173 -6.476252,7.603176 -0.968833,0.738844 -1.758375,1.509166 -1.754533,1.711833 0.0038,0.202664 1.148348,0.904896 2.543344,1.560512 5.310347,2.495755 9.025111,7.590129 9.361954,12.838849 0.369721,5.76108 -1.506231,9.99562 -6.774152,15.29111 -3.192234,3.20894 -11.702624,9.95198 -14.213223,11.26156 -1.055589,0.55062 -3.830087,0.60635 -7.339736,0.14742 z m 16.556676,-11.28901 c 4.174258,-1.2893 7.070122,-4.39636 7.502846,-8.05003 0.176319,-1.48873 0.05494,-2.10765 -0.726609,-3.70508 -2.128358,-4.35021 -6.737304,-6.15958 -20.07337,-7.88038 l -7.408492,-0.95595 -1.839962,1.97676 c -2.297313,2.46811 -3.450466,4.8102 -3.636818,7.38648 -0.185314,2.56194 0.337591,4.09688 2.063722,6.05787 2.686491,3.05202 7.303926,5.23775 12.412483,5.87564 3.570471,0.44583 9.047681,0.11582 11.7062,-0.70531 z M 64.176466,91.642483 c 2.15186,-1.934707 3.431769,-3.990784 3.75921,-6.038892 0.195161,-1.220696 0.06302,-1.852895 -0.723148,-3.459762 -2.161646,-4.418242 -7.658965,-6.136686 -19.683491,-6.153002 l -4.505688,-0.0061 -1.034697,1.631548 c -2.3934,3.773999 -2.19021,8.199349 0.499988,10.889548 1.874411,1.874411 3.441012,2.387939 10.251638,3.360459 2.910417,0.41559 5.926667,0.883373 6.702778,1.03952 2.516388,0.506267 2.870267,0.411822 4.73341,-1.263305 z m 41.097894,38.273107 c -2.89402,-1.77052 -5.471551,-3.41463 -5.727837,-3.65357 -0.381716,-0.3559 -0.200353,-0.84231 1.002967,-2.68991 l 1.46894,-2.25545 -0.21285,-12.17084 c -0.35589,-20.349901 -0.59981,-27.987635 -0.93509,-29.280551 -0.46988,-1.812018 -1.577628,-3.439199 -2.883237,-4.235238 -1.576973,-0.961493 -2.081558,-0.893618 -3.948007,0.531071 -0.889663,0.679098 -1.822573,1.234723 -2.07313,1.234723 -0.499509,0 -1.302227,-0.688499 -1.302227,-1.11693 0,-0.148643 2.648765,-2.587353 5.886147,-5.419351 6.517184,-5.701111 6.205824,-5.571621 9.202624,-3.827254 3.32473,1.935254 5.00576,4.432582 5.66995,8.423257 0.19376,1.164166 0.45672,11.716459 0.58437,23.449537 0.17377,15.973146 0.34436,21.601616 0.67901,22.402536 0.48527,1.16142 3.35878,3.7132 4.18135,3.7132 0.27958,0 1.28474,-0.6651 2.23369,-1.47799 3.22823,-2.7654 2.87868,-2.58558 3.65696,-1.88124 0.39579,0.35817 0.58632,0.81685 0.44097,1.06159 -0.14075,0.23701 -1.92278,1.83278 -3.96007,3.54616 -2.03729,1.71337 -4.64403,3.95901 -5.79276,4.9903 -1.14872,1.03129 -2.27338,1.87507 -2.49925,1.87507 -0.22586,0 -2.7785,-1.4486 -5.67252,-3.21912 z m 47.74773,2.50199 c -8.00797,-1.34841 -14.21906,-6.45728 -16.00499,-13.16474 -0.63309,-2.37769 -0.61733,-4.53597 0.052,-7.12248 0.79315,-3.06498 2.4087,-5.54768 5.90332,-9.07197 1.70282,-1.71727 3.00173,-3.274886 2.88648,-3.461368 -0.11525,-0.186482 -0.84036,-0.660876 -1.61136,-1.054209 -2.90185,-1.480414 -5.32391,-4.706997 -5.91719,-7.882671 -0.62205,-3.329644 0.87079,-8.747266 3.57534,-12.975156 1.72201,-2.691924 6.03284,-7.736374 9.41056,-11.012046 l 2.87216,-2.785382 5.01483,0.212432 c 5.59289,0.236919 8.49373,0.821115 11.71783,2.359836 2.71379,1.295175 5.77462,4.194362 7.09502,6.720343 0.86084,1.64683 1.00499,2.327409 1.00499,4.744822 0,2.416972 -0.14421,3.098102 -1.00431,4.743471 -1.1117,2.126679 -4.01939,5.342862 -6.63099,7.334494 -0.93482,0.7129 -1.69967,1.414275 -1.69967,1.558611 0,0.144335 1.26861,0.922432 2.81913,1.729101 3.41179,1.775005 6.3344,4.751567 7.85409,7.999062 2.72463,5.82241 1.13702,12.7715 -4.31744,18.89775 -1.95233,2.19277 -7.66861,6.86223 -12.32232,10.06573 l -3.67347,2.52872 -2.67653,-0.0415 c -1.47208,-0.0228 -3.42845,-0.1681 -4.34748,-0.32286 z m 15.78208,-10.69853 c 3.56337,-0.95186 6.36034,-3.06135 7.77263,-5.86219 0.76086,-1.50891 0.79551,-4.3315 0.0742,-6.04255 -1.02683,-2.43574 -4.3362,-4.869 -8.18811,-6.02042 -2.23759,-0.66887 -7.638,-1.6532 -13.38248,-2.43921 l -5.96268,-0.81588 -1.83636,1.9729 c -4.81821,5.17643 -5.01276,10.47046 -0.53281,14.49832 3.72039,3.34495 9.28219,5.11086 16.23479,5.15466 2.35345,0.0148 4.7976,-0.1723 5.82084,-0.44563 z m -0.002,-32.740684 c 3.46969,-3.171099 4.34242,-6.829436 2.34037,-9.810415 -2.59247,-3.860098 -6.87708,-5.109884 -18.38784,-5.363584 l -5.11383,-0.112709 -1.1237,1.679208 c -2.44288,3.650551 -2.33359,8.271954 0.25687,10.862412 1.62116,1.621162 4.26945,2.516135 9.85976,3.332043 2.0373,0.297345 4.8948,0.746343 6.35,0.997779 1.45521,0.251435 2.93411,0.386658 3.28644,0.300496 0.35233,-0.08616 1.4917,-0.934516 2.53193,-1.88523 z M 115.94296,221.48216 c 1.21231,-1.21231 1.0299,-1.98708 -1.86278,-7.91187 -1.27827,-2.61815 -2.56558,-5.39627 -2.86069,-6.17361 -0.69691,-1.83569 -2.0686,-2.99687 -3.5428,-2.9991 -0.88364,-0.001 -1.22859,-0.19462 -1.46714,-0.82205 -0.17153,-0.45116 -0.72323,-1.08982 -1.22599,-1.41924 -0.54121,-0.35461 -0.91411,-0.92707 -0.91411,-1.40327 0,-0.44237 -0.4573,-1.4309 -1.01623,-2.19673 -0.55892,-0.76583 -1.12676,-1.90653 -1.26186,-2.53489 -0.24378,-1.13383 -0.76118,-1.75668 -1.14249,-1.37537 -0.10926,0.10925 0.21881,1.32486 0.72902,2.70134 1.17962,3.18243 1.19304,4.32398 0.0596,5.06666 -1.15162,0.75457 -1.721508,2.98151 -1.513842,5.9156 0.429312,6.06572 5.694572,11.97446 12.083332,13.56008 2.55749,0.63474 2.93255,0.5959 3.93601,-0.40755 z m -32.322385,-1.84613 c 1.243729,-1.24373 2.180583,-3.63997 1.636018,-4.18454 -0.110176,-0.11018 -0.893731,0.13535 -1.741227,0.54562 -1.501119,0.72667 -3.434655,0.98127 -3.902121,0.51381 -0.390302,-0.3903 0.505965,-1.17899 1.339808,-1.17899 0.432357,0 1.286044,-0.17428 1.897084,-0.38729 0.958091,-0.33399 1.110975,-0.55564 1.110975,-1.61069 0,-2.22705 1.180207,-3.45457 1.623451,-1.68853 0.608669,2.42512 2.148921,-0.57253 1.7835,-3.47107 -0.234901,-1.86326 -0.710244,-2.28825 -2.859698,-2.55681 -2.569654,-0.32105 -3.469964,0.17694 -3.173815,1.75555 0.262136,1.39731 -0.162722,1.76946 -1.384539,1.21276 -1.362541,-0.62081 -1.398542,-1.29805 -0.131491,-2.47354 1.786509,-1.6574 3.003222,-2.1724 4.548586,-1.92529 1.172824,0.18755 1.357894,0.1263 1.357894,-0.44939 0,-1.59929 -2.263693,-1.98389 -5.284078,-0.89778 -2.061383,0.74127 -2.480045,0.53207 -1.479864,-0.73945 1.635319,-2.07897 2.502708,-2.47298 5.259469,-2.38909 2.942816,0.0896 3.265523,-0.30592 1.477405,-1.81052 -2.06647,-1.73882 -6.125729,-0.79053 -8.765674,2.04775 -0.867703,0.9329 -1.790591,1.21915 -1.790591,0.5554 0,-0.96198 1.14408,-2.89489 2.481979,-4.19328 1.533504,-1.48822 2.45691,-1.83048 2.45691,-0.91067 0,0.70547 1.719866,0.70159 1.990817,-0.004 0.112631,-0.29352 0.01503,-0.76229 -0.216863,-1.04171 -0.346552,-0.41757 -0.185329,-0.62097 0.905217,-1.14204 1.465629,-0.70028 1.914236,-1.42027 1.054333,-1.69213 -0.307178,-0.0971 -0.803201,-0.25349 -1.102276,-0.34749 -0.464033,-0.14586 -0.435024,-0.31801 0.197835,-1.174 0.716375,-0.96895 0.721568,-1.05314 0.152685,-2.47491 -1.001822,-2.5038 -1.922706,-1.7951 -1.849758,1.42357 0.02071,0.91338 -0.158168,1.89662 -0.397486,2.18498 -0.239317,0.28837 -1.429586,0.85524 -2.645039,1.25971 -3.062937,1.01928 -4.142338,2.2438 -5.527947,6.27113 -0.874356,2.54136 -0.658996,3.36679 2.595527,9.94808 2.355515,4.76332 2.51617,5.23652 2.455306,7.23194 -0.115105,3.77379 0.738131,5.05639 3.399292,5.10987 0.92269,0.0186 1.487385,-0.27548 2.528376,-1.31647 z m 35.036255,-0.9421 c 0.10945,-0.2852 -0.11829,-1.23582 -0.50607,-2.11247 -0.53207,-1.20284 -0.61546,-1.76135 -0.33987,-2.27631 0.61872,-1.15608 2.17267,-2.14822 3.3647,-2.14822 0.96388,0 1.28926,0.24249 2.14765,1.6005 1.00664,1.59254 2.34807,2.33875 3.01155,1.67527 0.50758,-0.50758 -0.97447,-4.27392 -3.33143,-8.46615 -1.11409,-1.98159 -2.1785,-3.69738 -2.36537,-3.81287 -0.42166,-0.2606 -6.98633,2.53907 -7.8548,3.34988 -0.60792,0.56755 -0.54633,0.79374 1.45072,5.3279 2.89216,6.56645 3.31129,7.38103 3.79785,7.38103 0.23435,0 0.51563,-0.23335 0.62507,-0.51856 z m -2.98871,-7.56129 c 0.55285,-0.35017 0.23773,-1.09237 -0.4638,-1.09237 -0.69169,0 -1.36685,-0.96904 -1.12119,-1.60922 0.19153,-0.49912 0.27261,-0.50211 0.74711,-0.0276 0.29275,0.29275 0.83416,0.62809 1.20315,0.7452 0.36898,0.1171 0.75817,0.44041 0.86486,0.71845 0.21255,0.55389 -0.63883,1.58748 -1.30053,1.57888 -0.26718,-0.004 -0.24202,-0.11545 0.0704,-0.31334 z m 1.31602,-2.15785 c -0.64379,-1.60897 -0.70427,-2.10952 -0.25489,-2.10952 0.17192,0 0.57624,0.55562 0.8985,1.23472 0.37471,0.78965 0.83427,1.23472 1.27491,1.23472 0.82766,0 0.91214,0.54445 0.13099,0.8442 -1.10037,0.42225 -1.49047,0.19306 -2.04951,-1.20412 z m 3.19549,-1.10999 c -1.28442,-1.72841 -1.50836,-2.61534 -0.43555,-1.72499 0.28723,0.23838 0.66959,0.34235 0.84969,0.23104 0.29801,-0.18418 1.3004,2.89562 1.03034,3.16568 -0.0638,0.0638 -0.71381,-0.68848 -1.44448,-1.67173 z m 9.72666,7.47673 c 1.84101,-1.44815 2.85897,-5.12575 2.37214,-8.56991 -0.16295,-1.15283 -0.55627,-2.38334 -0.87405,-2.73448 -0.52331,-0.57825 -0.71659,-0.59341 -2.05011,-0.16077 -0.80978,0.26272 -2.39524,0.65918 -3.52325,0.88101 -1.12802,0.22184 -2.12364,0.59282 -2.21251,0.82439 -0.16087,0.41922 1.82154,5.26534 3.54601,8.66841 0.99438,1.9623 1.41943,2.1315 2.74177,1.09135 z m -12.07851,-14.05471 c 0,-0.4304 -2.07938,-2.33755 -2.30388,-2.11305 -0.24161,0.24162 1.54124,2.39983 1.98246,2.39983 0.17678,0 0.32142,-0.12905 0.32142,-0.28678 z m -19.050002,-6.23961 c 0,-0.29104 -0.15875,-0.52916 -0.352777,-0.52916 -0.194028,0 -0.352778,0.23812 -0.352778,0.52916 0,0.29104 0.15875,0.52917 0.352778,0.52917 0.194027,0 0.352777,-0.23813 0.352777,-0.52917 z m 24.339342,-3.0868 c -0.001,-0.24254 -0.31773,-0.91723 -0.70323,-1.49931 -0.3855,-0.58208 -0.70195,-1.65364 -0.70323,-2.38125 -0.001,-0.7276 -0.16108,-1.32292 -0.3551,-1.32292 -0.64407,0 -0.38905,3.28758 0.34891,4.49792 0.70719,1.15989 1.41692,1.51436 1.41265,0.70556 z m -44.800453,-1.25984 c 1.99571,-0.97202 2.650324,-1.99711 1.545971,-2.42089 -0.929778,-0.35679 -5.779304,2.29117 -5.779304,3.15564 0,0.56705 0.175214,0.63426 1.146527,0.43981 0.630591,-0.12625 2.019653,-0.65479 3.086806,-1.17456 z m 52.211113,-0.0631 c 0,-0.19403 -0.23813,-0.35278 -0.52917,-0.35278 -0.29104,0 -0.52916,0.15875 -0.52916,0.35278 0,0.19403 0.23812,0.35278 0.52916,0.35278 0.29104,0 0.52917,-0.15875 0.52917,-0.35278 z m -2.46945,-2.29306 c 0,-0.29104 -0.15875,-0.52916 -0.35277,-0.52916 -0.19403,0 -0.35278,0.23812 -0.35278,0.52916 0,0.29105 0.15875,0.52917 0.35278,0.52917 0.19402,0 0.35277,-0.23812 0.35277,-0.52917 z m 3.88056,-1.19152 c 0,-0.45982 -0.91117,-1.1311 -1.17592,-0.86634 -0.26476,0.26475 0.40652,1.17592 0.86634,1.17592 0.17027,0 0.30958,-0.13931 0.30958,-0.30958 z m -11.99444,-1.45431 c 0,-0.19403 -0.15875,-0.35278 -0.35278,-0.35278 -0.19403,0 -0.35278,0.15875 -0.35278,0.35278 0,0.19403 0.15875,0.35278 0.35278,0.35278 0.19403,0 0.35278,-0.15875 0.35278,-0.35278 z M 95.955556,183.8015 c 0,-0.26728 -0.241441,-0.68635 -0.536536,-0.93126 -0.295095,-0.2449 -0.969783,-1.21668 -1.499306,-2.1595 -1.58291,-2.81839 -2.629408,-1.81384 -1.143882,1.09803 0.995945,1.95221 3.179724,3.32078 3.179724,1.99273 z m 28.917934,-2.17172 c -0.49141,-0.59212 -1.60738,-0.68724 -1.93043,-0.16453 -0.11992,0.19403 0.0894,0.35278 0.46515,0.35278 0.37575,0 0.89525,0.25553 1.15445,0.56784 0.30792,0.37103 0.51787,0.42806 0.60572,0.16453 0.0739,-0.22182 -0.0588,-0.63611 -0.29489,-0.92062 z m -1.22488,-2.03004 c 1.49662,-0.75681 1.43713,-1.6631 -0.10901,-1.66095 -1.01911,10e-4 -3.24238,1.18628 -3.24238,1.72799 0,0.76218 1.7821,0.72653 3.35139,-0.067 z m -31.306962,-6.56298 c 0.861709,-1.87835 0.975582,-2.50762 0.453778,-2.50762 -0.442186,0 -2.131537,2.8904 -2.131537,3.64696 0,1.16337 0.902551,0.55046 1.677759,-1.13934 z m 0.256046,-6.04588 c -0.37313,-0.60373 -0.800174,-0.37102 -1.552254,0.84587 -1.140224,1.84492 -0.84853,2.3066 0.524284,0.82983 0.68174,-0.73337 1.144326,-1.48743 1.02797,-1.6757 z m -0.659233,-5.13797 c 0.317627,-1.26553 -0.08584,-1.44705 -1.099573,-0.49469 -0.627097,0.58913 -0.877344,1.19032 -0.869406,2.08866 l 0.01115,1.26142 0.868278,-0.98688 c 0.477552,-0.54279 0.967853,-1.38362 1.089554,-1.86851 z m 1.8381,-11.91523 c 0.150103,-0.75696 -0.375391,-0.7288 -1.365832,0.0732 -1.05779,0.85655 -0.623532,1.74499 0.491638,1.00583 0.418073,-0.2771 0.811463,-0.76267 0.874194,-1.07904 z m 3.766495,-3.75021 c 0.127547,-0.20637 -0.23846,-0.35278 -0.881944,-0.35278 -0.643485,0 -1.009492,0.14641 -0.881945,0.35278 0.119916,0.19403 0.516791,0.35278 0.881945,0.35278 0.365153,0 0.762028,-0.15875 0.881944,-0.35278 z m 4.586114,-2.45637 c 0.64828,-0.26657 0.65537,-0.3106 0.0874,-0.54242 -0.75381,-0.30767 -2.380458,0.0586 -2.380458,0.53607 0,0.41128 1.299528,0.41488 2.293058,0.006 z"
       id="path32"
       inkscape:connector-curvature="0" />
  </g>
</svg>
